<svg width="197" height="228" viewBox="0 0 197 228" fill="none" xmlns="http://www.w3.org/2000/svg">
<path d="M131.049 57.6148C130.714 57.4248 130.31 57.3538 129.977 57.4758C126.858 58.6218 123.332 59.9698 120.399 61.9618C119.641 58.8398 116.515 56.6088 113.294 55.3208C111.543 56.7778 106.192 63.8158 107.761 70.4308C108.475 73.4428 111.871 79.3468 116.547 82.3238C116.69 82.3978 116.835 81.9108 116.981 81.9818C117.116 82.0728 116.766 82.4418 116.902 82.5288C121.818 85.0898 128.629 85.0788 131.595 84.1908C138.108 82.2418 141.528 74.0888 141.914 71.8438C139.188 69.6978 135.693 68.1068 132.61 69.0108C132.868 65.4748 132.273 61.7468 131.706 58.4728C131.645 58.1248 131.382 57.8098 131.049 57.6148ZM163.722 114.205C163.72 113.82 163.578 113.434 163.306 113.207C160.754 111.079 157.823 108.7 154.632 107.155C156.957 104.937 157.326 101.115 156.831 97.6808C154.694 96.8928 145.923 95.7778 140.979 100.444C138.728 102.569 135.312 108.462 135.072 113.999C135.079 114.16 135.573 114.042 135.585 114.204C135.574 114.367 135.079 114.248 135.072 114.409C135.312 119.947 138.727 125.839 140.979 127.964C145.923 132.63 154.694 131.515 156.831 130.727C157.326 127.293 156.957 123.471 154.632 121.253C157.824 119.709 160.754 117.329 163.306 115.201C163.578 114.976 163.719 114.59 163.722 114.205ZM131.049 170.795C131.381 170.6 131.645 170.285 131.705 169.936C132.272 166.662 132.867 162.934 132.609 159.398C135.692 160.303 139.187 158.711 141.913 156.565C141.527 154.32 138.107 146.167 131.594 144.218C128.628 143.331 121.817 143.319 116.901 145.88C116.765 145.967 117.115 146.336 116.98 146.427C116.834 146.498 116.689 146.011 116.546 146.085C111.87 149.062 108.475 154.966 107.76 157.978C106.191 164.593 111.543 171.631 113.293 173.088C116.515 171.8 119.64 169.569 120.398 166.447C123.331 168.439 126.857 169.787 129.976 170.933C130.31 171.056 130.714 170.986 131.049 170.795ZM65.705 170.795C66.04 170.986 66.444 171.056 66.777 170.934C69.895 169.788 73.422 168.44 76.355 166.448C77.113 169.57 80.239 171.801 83.46 173.089C85.211 171.632 90.562 164.594 88.993 157.979C88.279 154.967 84.883 149.062 80.207 146.086C80.064 146.012 79.919 146.499 79.773 146.428C79.638 146.337 79.988 145.968 79.852 145.881C74.936 143.32 68.125 143.331 65.159 144.219C58.646 146.168 55.226 154.321 54.84 156.566C57.566 158.712 61.061 160.303 64.144 159.399C63.886 162.935 64.481 166.663 65.048 169.937C65.109 170.285 65.372 170.6 65.705 170.795ZM33.032 114.205C33.035 114.59 33.176 114.976 33.448 115.203C36 117.331 38.93 119.71 42.122 121.255C39.797 123.473 39.428 127.295 39.923 130.729C42.06 131.517 50.831 132.632 55.776 127.966C58.027 125.841 61.443 119.948 61.683 114.411C61.676 114.25 61.182 114.369 61.17 114.206C61.182 114.044 61.676 114.162 61.683 114.001C61.443 108.463 58.028 102.571 55.776 100.446C50.832 95.7798 42.061 96.8948 39.923 97.6828C39.428 101.117 39.797 104.939 42.122 107.157C38.93 108.701 36 111.081 33.448 113.209C33.176 113.434 33.035 113.82 33.032 114.205ZM65.705 57.6148C65.373 57.8098 65.109 58.1248 65.049 58.4738C64.482 61.7478 63.887 65.4758 64.145 69.0118C61.062 68.1078 57.567 69.6988 54.841 71.8448C55.227 74.0898 58.647 82.2428 65.16 84.1918C68.126 85.0788 74.937 85.0908 79.853 82.5298C79.989 82.4438 79.639 82.0748 79.774 81.9828C79.92 81.9118 80.065 82.3988 80.208 82.3248C84.884 79.3478 88.279 73.4438 88.994 70.4318C90.563 63.8168 85.211 56.7788 83.461 55.3218C80.239 56.6098 77.114 58.8408 76.356 61.9628C73.423 59.9708 69.896 58.6228 66.778 57.4768C66.444 57.3538 66.04 57.4238 65.705 57.6148ZM119.242 78.0648C117.161 74.3138 116.188 69.8788 119.471 66.4038C121.989 63.7378 125.772 62.0518 129.254 60.7248C129.846 64.4038 130.277 68.5218 129.227 72.0358C127.858 76.6168 123.531 77.9918 119.242 78.0648ZM140.107 114.205C142.314 110.527 145.67 107.467 150.32 108.572C153.888 109.42 157.239 111.852 160.129 114.205C157.239 116.557 153.888 118.99 150.32 119.838C145.67 120.943 142.315 117.883 140.107 114.205ZM119.242 150.344C123.531 150.417 127.858 151.793 129.227 156.373C130.277 159.887 129.846 164.006 129.254 167.684C125.772 166.358 121.99 164.671 119.471 162.005C116.188 158.531 117.161 154.095 119.242 150.344ZM77.512 150.344C79.593 154.095 80.566 158.53 77.283 162.005C74.764 164.671 70.982 166.357 67.5 167.684C66.908 164.005 66.477 159.887 67.527 156.373C68.895 151.793 73.223 150.417 77.512 150.344ZM56.646 114.205C54.438 117.883 51.083 120.943 46.433 119.838C42.865 118.99 39.514 116.558 36.624 114.205C39.514 111.853 42.865 109.42 46.433 108.572C51.084 107.467 54.439 110.527 56.646 114.205ZM77.512 78.0648C73.223 77.9918 68.896 76.6168 67.528 72.0358C66.478 68.5218 66.909 64.4028 67.501 60.7248C70.983 62.0508 74.765 63.7378 77.284 66.4038C80.565 69.8788 79.593 74.3148 77.512 78.0648ZM113.64 58.5628C115.901 59.6658 117.937 61.2158 117.793 64.0618C117.792 64.0748 117.795 64.0868 117.795 64.0998C117.187 64.7098 116.629 65.3628 116.15 66.0768C114.076 69.1698 114.178 72.7418 115.294 76.0578C112.561 74.4898 110.659 71.8308 110.279 68.5418C109.846 64.7878 111.753 60.8558 113.64 58.5628ZM57.821 73.1648C59.906 71.7578 62.267 70.7708 64.659 72.3178C64.67 72.3248 64.681 72.3278 64.693 72.3348C64.917 73.1658 65.203 73.9758 65.583 74.7478C67.224 78.0908 70.369 79.7888 73.799 80.4798C71.075 82.0628 67.82 82.3808 64.783 81.0648C61.315 79.5638 58.864 75.9458 57.821 73.1648ZM42.558 128.808C42.383 126.299 42.707 123.761 45.244 122.462C45.256 122.456 45.264 122.448 45.276 122.442C46.108 122.664 46.953 122.82 47.811 122.878C51.526 123.128 54.569 121.253 56.883 118.629C56.892 121.78 55.54 124.757 52.881 126.73C49.846 128.981 45.488 129.295 42.558 128.808ZM83.114 169.847C80.853 168.744 78.818 167.194 78.962 164.348C78.963 164.335 78.96 164.324 78.96 164.31C79.568 163.7 80.126 163.047 80.605 162.333C82.679 159.24 82.577 155.668 81.461 152.352C84.194 153.92 86.096 156.579 86.476 159.868C86.908 163.622 85.001 167.553 83.114 169.847ZM138.933 155.244C136.848 156.651 134.487 157.638 132.095 156.091C132.084 156.084 132.073 156.081 132.061 156.074C131.837 155.242 131.551 154.433 131.171 153.66C129.53 150.317 126.385 148.619 122.955 147.928C125.679 146.345 128.934 146.027 131.971 147.343C135.439 148.846 137.89 152.463 138.933 155.244ZM154.196 99.6018C154.372 102.111 154.047 104.649 151.51 105.948C151.498 105.954 151.49 105.962 151.478 105.968C150.646 105.746 149.801 105.589 148.943 105.532C145.227 105.282 142.185 107.157 139.871 109.781C139.862 106.63 141.214 103.653 143.872 101.68C146.908 99.4288 151.266 99.1148 154.196 99.6018ZM131.972 81.0658C128.935 82.3818 125.68 82.0638 122.956 80.4808C126.386 79.7898 129.531 78.0918 131.172 74.7488C131.551 73.9768 131.838 73.1668 132.062 72.3358C132.073 72.3288 132.084 72.3258 132.096 72.3188C134.488 70.7708 136.849 71.7588 138.934 73.1658C137.89 75.9458 135.439 79.5638 131.972 81.0658ZM86.475 68.5418C86.096 71.8298 84.193 74.4898 81.46 76.0578C82.576 72.7418 82.678 69.1698 80.604 66.0768C80.125 65.3628 79.567 64.7098 78.959 64.0998C78.959 64.0868 78.962 64.0758 78.961 64.0618C78.817 61.2158 80.853 59.6658 83.113 58.5628C85.001 60.8558 86.908 64.7878 86.475 68.5418ZM52.881 101.68C55.539 103.652 56.891 106.63 56.883 109.781C54.569 107.156 51.526 105.281 47.811 105.532C46.953 105.59 46.108 105.747 45.276 105.968C45.264 105.962 45.256 105.954 45.244 105.948C42.708 104.65 42.383 102.112 42.558 99.6018C45.488 99.1148 49.846 99.4288 52.881 101.68ZM64.782 147.343C67.819 146.027 71.074 146.345 73.798 147.928C70.368 148.619 67.223 150.317 65.582 153.66C65.203 154.432 64.916 155.242 64.692 156.074C64.681 156.081 64.67 156.084 64.658 156.091C62.266 157.639 59.905 156.651 57.82 155.244C58.864 152.463 61.315 148.846 64.782 147.343ZM110.278 159.868C110.657 156.58 112.56 153.92 115.293 152.352C114.177 155.668 114.075 159.241 116.149 162.333C116.628 163.047 117.186 163.7 117.794 164.31C117.794 164.323 117.791 164.334 117.792 164.348C117.936 167.194 115.9 168.744 113.639 169.847C111.753 167.553 109.846 163.622 110.278 159.868ZM143.873 126.729C141.215 124.756 139.863 121.779 139.872 118.628C142.186 121.253 145.228 123.127 148.944 122.877C149.802 122.819 150.647 122.662 151.479 122.441C151.491 122.447 151.499 122.455 151.511 122.461C154.047 123.759 154.372 126.297 154.197 128.807C151.266 129.295 146.908 128.981 143.873 126.729Z" fill="url(#paint0_linear_206_12)"/>
<path d="M98.377 39.9859C98.71 40.0009 99.058 39.8869 99.367 39.5929C101.542 37.5249 103.663 35.2049 105.282 32.6239C106.893 33.4869 108.608 34.2399 110.382 34.9819C113.383 36.2369 116.593 37.5509 118.937 39.8869C121.632 42.5719 123.41 48.6909 118.073 49.6509C116.302 49.9699 117.052 52.6699 118.818 52.3519C122.016 51.7759 124.32 48.9179 124.431 45.6739C124.552 42.1229 122.355 38.9749 119.694 36.8359C115.804 33.7079 110.895 32.3849 106.629 30.1379C107.551 28.1269 108.132 25.9769 108.18 23.6749C108.334 16.2559 101.369 7.15692 98.376 0.721924C95.383 7.15692 88.418 16.2559 88.572 23.6749C88.62 25.9759 89.201 28.1269 90.123 30.1379C85.857 32.3859 80.948 33.7089 77.058 36.8359C74.397 38.9749 72.2 42.1229 72.321 45.6739C72.432 48.9189 74.736 51.7769 77.934 52.3519C79.7 52.6699 80.45 49.9699 78.679 49.6509C73.342 48.6909 75.12 42.5719 77.815 39.8869C80.159 37.5509 83.37 36.2369 86.37 34.9819C88.145 34.2399 89.859 33.4869 91.471 32.6239C93.09 35.2049 95.212 37.5259 97.386 39.5929C97.696 39.8869 98.044 40.0009 98.377 39.9859ZM162.652 77.0949C162.806 77.3909 163.078 77.6349 163.488 77.7559C166.366 78.6059 169.436 79.2829 172.481 79.3939C172.54 81.2209 172.745 83.0819 172.989 84.9899C173.402 88.2159 173.869 91.6539 173.019 94.8509C172.041 98.5279 167.631 103.126 164.131 98.9849C162.969 97.6099 161.006 99.6109 162.164 100.981C164.262 103.463 167.889 104.029 170.754 102.503C173.89 100.832 175.518 97.3549 176.04 93.9819C176.803 89.0489 175.495 84.1359 175.308 79.3179C177.51 79.1109 179.663 78.5389 181.68 77.4299C188.182 73.8539 192.58 63.2729 196.656 57.4629C189.586 58.0879 178.224 56.6059 171.876 60.4489C169.907 61.6409 168.335 63.2199 167.055 65.0239C162.975 62.4529 159.375 58.8629 154.721 57.0579C151.538 55.8229 147.713 55.4949 144.698 57.3749C141.943 59.0929 140.62 62.5179 141.721 65.5749C142.329 67.2629 145.042 66.5629 144.433 64.8689C142.596 59.7669 148.784 58.2469 152.457 59.2379C155.651 60.0999 158.395 62.2239 160.982 64.1939C162.512 65.3599 164.022 66.4679 165.574 67.4319C164.148 70.1249 163.199 73.1219 162.496 76.0389C162.398 76.4569 162.473 76.8139 162.652 77.0949ZM162.652 151.314C162.473 151.595 162.397 151.953 162.497 152.368C163.2 155.285 164.149 158.283 165.575 160.975C164.022 161.939 162.513 163.047 160.983 164.213C158.396 166.184 155.652 168.307 152.458 169.17C148.785 170.161 142.597 168.641 144.434 163.539C145.044 161.845 142.33 161.145 141.722 162.833C140.621 165.89 141.944 169.315 144.699 171.033C147.714 172.913 151.539 172.585 154.722 171.35C159.376 169.545 162.976 165.955 167.056 163.384C168.336 165.188 169.908 166.766 171.877 167.959C178.225 171.802 189.588 170.32 196.657 170.945C192.581 165.135 188.183 154.554 181.681 150.978C179.664 149.869 177.511 149.296 175.309 149.09C175.496 144.272 176.804 139.359 176.041 134.426C175.519 131.052 173.891 127.576 170.755 125.905C167.89 124.378 164.262 124.945 162.165 127.427C161.007 128.797 162.97 130.797 164.132 129.423C167.632 125.281 172.042 129.88 173.02 133.557C173.871 136.754 173.403 140.192 172.99 143.418C172.745 145.326 172.54 147.188 172.482 149.014C169.437 149.125 166.367 149.803 163.489 150.652C163.078 150.774 162.806 151.019 162.652 151.314ZM98.377 188.424C98.044 188.409 97.696 188.523 97.387 188.817C95.212 190.885 93.09 193.205 91.472 195.786C89.861 194.923 88.146 194.17 86.371 193.428C83.371 192.173 80.16 190.859 77.816 188.523C75.121 185.838 73.343 179.719 78.68 178.759C80.451 178.44 79.701 175.74 77.935 176.058C74.737 176.634 72.433 179.492 72.322 182.736C72.201 186.287 74.398 189.435 77.059 191.574C80.949 194.702 85.858 196.025 90.124 198.272C89.202 200.282 88.621 202.433 88.573 204.735C88.419 212.154 95.384 221.253 98.377 227.688C101.37 221.253 108.335 212.154 108.181 204.735C108.133 202.434 107.552 200.283 106.63 198.272C110.896 196.024 115.805 194.701 119.695 191.574C122.355 189.435 124.552 186.287 124.432 182.736C124.321 179.491 122.017 176.633 118.819 176.058C117.053 175.74 116.303 178.44 118.074 178.759C123.411 179.72 121.633 185.838 118.938 188.523C116.594 190.858 113.383 192.173 110.383 193.428C108.608 194.17 106.894 194.923 105.283 195.786C103.664 193.205 101.543 190.884 99.368 188.817C99.058 188.523 98.71 188.409 98.377 188.424ZM34.102 151.314C33.948 151.018 33.676 150.774 33.266 150.653C30.388 149.803 27.318 149.126 24.273 149.015C24.214 147.188 24.009 145.327 23.765 143.419C23.352 140.193 22.884 136.755 23.735 133.558C24.713 129.881 29.123 125.283 32.623 129.424C33.785 130.799 35.748 128.799 34.59 127.428C32.492 124.946 28.865 124.38 26 125.906C22.864 127.577 21.236 131.053 20.714 134.427C19.95 139.36 21.259 144.273 21.446 149.091C19.244 149.298 17.091 149.87 15.074 150.979C8.57202 154.555 4.17402 165.136 0.0980225 170.946C7.16802 170.321 18.53 171.803 24.878 167.96C26.847 166.768 28.419 165.189 29.699 163.385C33.779 165.956 37.379 169.546 42.033 171.351C45.216 172.585 49.041 172.914 52.055 171.034C54.81 169.316 56.133 165.891 55.032 162.834C54.424 161.146 51.711 161.846 52.32 163.54C54.157 168.642 47.969 170.162 44.296 169.171C41.101 168.309 38.358 166.185 35.771 164.214C34.241 163.048 32.731 161.94 31.179 160.976C32.605 158.283 33.554 155.286 34.257 152.369C34.356 151.953 34.281 151.595 34.102 151.314ZM34.102 77.0949C34.281 76.8139 34.357 76.4559 34.257 76.0409C33.554 73.1239 32.605 70.1259 31.179 67.4339C32.732 66.4699 34.241 65.3619 35.771 64.1959C38.358 62.2249 41.102 60.1019 44.296 59.2399C47.969 58.2489 54.157 59.7689 52.32 64.8709C51.71 66.5649 54.424 67.2649 55.032 65.5769C56.133 62.5199 54.81 59.0949 52.055 57.3769C49.04 55.4969 45.215 55.8249 42.033 57.0599C37.379 58.8649 33.779 62.4549 29.699 65.0259C28.419 63.2219 26.847 61.6439 24.878 60.4509C18.53 56.6079 7.16702 58.0899 0.0980225 57.4649C4.17402 63.2749 8.57202 73.8559 15.074 77.4319C17.091 78.5409 19.244 79.1139 21.446 79.3199C21.259 84.1379 19.951 89.0509 20.714 93.9839C21.236 97.3579 22.864 100.834 26 102.505C28.865 104.032 32.493 103.465 34.59 100.983C35.748 99.6129 33.785 97.6129 32.623 98.9869C29.123 103.129 24.713 98.5299 23.735 94.8529C22.884 91.6549 23.352 88.2179 23.765 84.9919C24.009 83.0839 24.215 81.2219 24.273 79.3959C27.318 79.2849 30.388 78.6069 33.266 77.7579C33.676 77.6349 33.948 77.3909 34.102 77.0949ZM98.377 27.0379C99.673 28.7189 101.193 30.0509 102.872 31.1799C101.626 33.1669 100.036 34.9919 98.377 36.6479C96.718 34.9919 95.128 33.1669 93.882 31.1799C95.561 30.0509 97.081 28.7189 98.377 27.0379ZM173.866 70.6219C173.058 72.5849 172.664 74.5669 172.526 76.5859C170.182 76.4999 167.807 76.0359 165.544 75.4269C166.149 73.1619 166.934 70.8729 168.032 68.7999C169.848 69.6889 171.762 70.3399 173.866 70.6219ZM173.866 157.788C171.762 158.069 169.848 158.72 168.031 159.61C166.933 157.537 166.148 155.248 165.543 152.984C167.806 152.375 170.182 151.911 172.525 151.825C172.664 153.843 173.057 155.825 173.866 157.788ZM98.377 201.372C97.081 199.691 95.561 198.359 93.882 197.23C95.128 195.243 96.718 193.418 98.377 191.763C100.036 193.419 101.625 195.244 102.872 197.23C101.193 198.358 99.673 199.69 98.377 201.372ZM22.888 157.788C23.696 155.825 24.09 153.843 24.228 151.824C26.572 151.91 28.947 152.374 31.21 152.983C30.605 155.247 29.82 157.536 28.722 159.609C26.906 158.72 24.992 158.07 22.888 157.788ZM22.888 70.6209C24.992 70.3399 26.906 69.6889 28.723 68.7989C29.821 70.8719 30.606 73.1609 31.211 75.4259C28.948 76.0349 26.573 76.4989 24.229 76.5849C24.09 74.5669 23.696 72.5839 22.888 70.6209ZM98.378 6.90792C100.921 11.6749 104.45 16.1999 105.23 21.5429C105.604 24.0999 105.149 26.4789 104.198 28.6819C102.411 27.4519 99.7 23.6819 98.466 21.5979C98.438 21.5509 98.409 21.5069 98.377 21.4659C98.345 21.5079 98.316 21.5519 98.288 21.5979C97.053 23.6819 94.343 27.4519 92.555 28.6819C91.604 26.4789 91.149 24.1009 91.523 21.5429C92.304 16.1999 95.833 11.6739 98.378 6.90792ZM191.3 60.5569C188.443 65.1429 186.289 70.4609 182.052 73.8089C180.024 75.4109 177.737 76.2069 175.354 76.4849C175.526 74.3219 177.435 70.0899 178.623 67.9789C178.649 67.9319 178.673 67.8839 178.693 67.8359C178.641 67.8299 178.588 67.8259 178.534 67.8249C176.112 67.7979 171.492 67.3349 169.533 66.4019C170.965 64.4769 172.798 62.8939 175.199 61.9389C180.216 59.9429 185.899 60.7369 191.3 60.5569ZM191.299 167.854C185.899 167.673 180.216 168.466 175.199 166.471C172.798 165.516 170.965 163.933 169.533 162.008C171.492 161.075 176.112 160.613 178.534 160.585C178.588 160.584 178.641 160.581 178.693 160.574C178.673 160.526 178.649 160.478 178.623 160.431C177.436 158.32 175.526 154.088 175.354 151.924C177.737 152.202 180.024 152.997 182.052 154.6C186.288 157.948 188.443 163.267 191.299 167.854ZM98.376 221.502C95.833 216.735 92.304 212.21 91.523 206.867C91.149 204.31 91.604 201.931 92.555 199.729C94.342 200.959 97.053 204.729 98.288 206.813C98.316 206.86 98.345 206.904 98.377 206.946C98.409 206.904 98.438 206.86 98.466 206.813C99.701 204.729 102.411 200.959 104.198 199.729C105.149 201.932 105.604 204.31 105.23 206.867C104.45 212.21 100.921 216.735 98.376 221.502ZM5.45403 167.853C8.31103 163.267 10.465 157.949 14.702 154.601C16.73 152.999 19.017 152.203 21.4 151.925C21.228 154.088 19.319 158.32 18.131 160.432C18.104 160.479 18.081 160.527 18.061 160.575C18.113 160.582 18.166 160.585 18.22 160.586C20.642 160.613 25.262 161.076 27.221 162.009C25.789 163.934 23.956 165.517 21.555 166.472C16.538 168.467 10.855 167.673 5.45403 167.853ZM5.45502 60.5549C10.855 60.7359 16.538 59.9429 21.555 61.9379C23.957 62.8929 25.789 64.4759 27.221 66.4009C25.262 67.3339 20.642 67.7959 18.22 67.8239C18.166 67.8249 18.113 67.8279 18.061 67.8349C18.081 67.8829 18.105 67.9309 18.131 67.9779C19.318 70.0889 21.228 74.3209 21.4 76.4839C19.017 76.2059 16.73 75.4109 14.702 73.8079C10.465 70.4609 8.31102 65.1429 5.45502 60.5549Z" fill="url(#paint1_linear_206_12)"/>
<path d="M146.635 30.6199C145.556 30.8609 142.076 31.7259 138.892 33.5849C137.48 29.9759 134.374 27.3579 130.148 25.8589C130.148 25.8589 124.437 32.8259 125.107 42.9959C125.671 51.5639 132.464 55.1649 132.464 55.1649C132.464 55.1649 138.979 59.2479 146.681 55.4519C155.823 50.9469 159.002 42.5169 159.002 42.5169C155.591 39.6059 151.771 38.2259 147.939 38.8069C147.957 35.1209 146.966 31.6749 146.635 30.6199ZM194.893 114.205C194.145 113.391 191.656 110.81 188.454 108.982C190.874 105.954 191.588 101.956 190.773 97.5459C190.773 97.5459 181.883 96.0839 173.411 101.749C166.273 106.522 166.551 114.205 166.551 114.205C166.551 114.205 166.272 121.888 173.411 126.661C181.884 132.326 190.773 130.864 190.773 130.864C191.588 126.455 190.874 122.456 188.454 119.428C191.656 117.6 194.144 115.019 194.893 114.205ZM146.635 197.79C146.966 196.735 147.957 193.289 147.939 189.602C151.771 190.184 155.591 188.803 159.002 185.892C159.002 185.892 155.823 177.462 146.681 172.957C138.979 169.161 132.464 173.244 132.464 173.244C132.464 173.244 125.671 176.844 125.107 185.413C124.437 195.583 130.148 202.55 130.148 202.55C134.374 201.051 137.48 198.433 138.892 194.824C142.076 196.684 145.555 197.549 146.635 197.79ZM50.1191 197.79C51.1981 197.549 54.6781 196.684 57.8621 194.825C59.2741 198.434 62.3801 201.052 66.6061 202.551C66.6061 202.551 72.3171 195.584 71.6471 185.414C71.0831 176.846 64.2901 173.245 64.2901 173.245C64.2901 173.245 57.7761 169.162 50.0731 172.958C40.9311 177.463 37.7521 185.893 37.7521 185.893C41.1631 188.804 44.9831 190.184 48.8151 189.603C48.7971 193.289 49.7881 196.735 50.1191 197.79ZM1.86108 114.205C2.60908 115.019 5.09809 117.6 8.30009 119.428C5.88009 122.456 5.16609 126.454 5.98109 130.864C5.98109 130.864 14.8711 132.326 23.3431 126.661C30.4811 121.888 30.2031 114.205 30.2031 114.205C30.2031 114.205 30.4821 106.522 23.3431 101.749C14.8701 96.0839 5.98109 97.5459 5.98109 97.5459C5.16609 101.956 5.88009 105.954 8.30009 108.982C5.09809 110.81 2.61008 113.391 1.86108 114.205ZM50.1191 30.6199C49.7881 31.6749 48.7971 35.1209 48.8151 38.8079C44.9831 38.2259 41.1631 39.6069 37.7521 42.5179C37.7521 42.5179 40.9301 50.9479 50.0731 55.4529C57.7761 59.2489 64.2901 55.1659 64.2901 55.1659C64.2901 55.1659 71.0831 51.5659 71.6471 42.9969C72.3171 32.8269 66.6061 25.8599 66.6061 25.8599C62.3801 27.3589 59.2741 29.9769 57.8621 33.5859C54.6781 31.7259 51.1991 30.8609 50.1191 30.6199ZM133.805 52.8419C131.275 48.8519 132.182 43.8899 135.089 40.2969C136.143 38.9939 137.371 37.9219 138.7 36.9939C138.76 36.9589 138.818 36.9189 138.873 36.8759C140.717 35.6139 142.753 34.6249 144.833 33.7419C145.108 35.9849 145.269 38.2419 145.099 40.4699C145.09 40.5399 145.084 40.6089 145.084 40.6789C144.944 42.2939 144.63 43.8929 144.029 45.4569C142.369 49.7709 138.526 53.0379 133.805 52.8419ZM169.232 114.205C171.423 110.019 176.174 108.324 180.738 109.044C182.394 109.305 183.936 109.833 185.404 110.519C185.465 110.554 185.528 110.584 185.593 110.61C187.608 111.576 189.482 112.844 191.286 114.204C189.482 115.564 187.608 116.832 185.593 117.798C185.528 117.825 185.465 117.855 185.404 117.889C183.936 118.575 182.394 119.103 180.738 119.364C176.174 120.086 171.423 118.391 169.232 114.205ZM133.805 175.568C138.526 175.372 142.369 178.639 144.028 182.952C144.63 184.517 144.943 186.116 145.083 187.73C145.084 187.8 145.089 187.87 145.098 187.939C145.269 190.167 145.108 192.424 144.832 194.667C142.752 193.784 140.717 192.795 138.872 191.533C138.816 191.49 138.759 191.451 138.699 191.415C137.37 190.487 136.143 189.415 135.088 188.112C132.182 184.52 131.274 179.558 133.805 175.568ZM62.9491 175.568C65.4791 179.558 64.5721 184.52 61.6651 188.113C60.6111 189.416 59.3831 190.488 58.0541 191.416C57.9931 191.451 57.9361 191.491 57.8811 191.534C56.0371 192.796 54.0021 193.785 51.9221 194.668C51.6471 192.425 51.4851 190.168 51.6561 187.94C51.6651 187.87 51.6711 187.801 51.6711 187.731C51.8111 186.116 52.1251 184.517 52.7261 182.953C54.3851 178.639 58.2281 175.371 62.9491 175.568ZM27.5221 114.205C25.3311 118.392 20.5801 120.086 16.0161 119.366C14.3601 119.105 12.8181 118.577 11.3501 117.891C11.2891 117.856 11.2261 117.826 11.1611 117.8C9.14609 116.834 7.27209 115.566 5.46709 114.206C7.27109 112.846 9.14509 111.578 11.1611 110.612C11.2261 110.585 11.2891 110.555 11.3501 110.521C12.8181 109.835 14.3601 109.307 16.0161 109.046C20.5801 108.324 25.3311 110.018 27.5221 114.205ZM62.9491 52.8419C58.2281 53.0379 54.3851 49.7709 52.7261 45.4579C52.1241 43.8929 51.8111 42.2939 51.6711 40.6799C51.6711 40.6099 51.6651 40.5409 51.6561 40.4709C51.4851 38.2429 51.6461 35.9859 51.9221 33.7429C54.0021 34.6259 56.0371 35.6149 57.8811 36.8769C57.9371 36.9199 57.9941 36.9589 58.0541 36.9949C59.3831 37.9229 60.6111 38.9949 61.6651 40.2979C64.5721 43.8899 65.4801 48.8519 62.9491 52.8419ZM131.298 29.3559C133.534 29.8849 135.765 32.9399 136.464 35.1799C134.765 36.4409 133.24 37.9309 131.995 39.7679C130.076 42.5989 129.198 46.0919 129.637 49.4099C128.374 47.6439 127.995 44.7149 127.907 42.9959C127.685 38.6489 128.286 34.0619 131.298 29.3559ZM41.3571 43.2699C42.9331 41.5979 46.6941 41.1929 48.9841 41.7079C49.2261 43.8089 49.7551 45.8749 50.7231 47.8719C52.2161 50.9489 54.8021 53.4559 57.8951 54.7349C55.7341 54.9459 53.0081 53.8099 51.4751 53.0269C47.5981 51.0459 43.9261 48.2309 41.3571 43.2699ZM8.43608 128.119C7.77608 125.918 9.30609 122.459 10.8961 120.733C12.8371 121.574 14.8901 122.149 17.1041 122.309C20.5151 122.555 23.9791 121.569 26.6331 119.53C25.7351 121.507 23.3881 123.3 21.9441 124.235C18.2901 126.602 14.0171 128.374 8.43608 128.119ZM65.4561 199.053C63.2201 198.524 60.9891 195.47 60.2901 193.229C61.9891 191.968 63.5141 190.478 64.7591 188.641C66.6781 185.81 67.5561 182.317 67.1171 178.999C68.3801 180.765 68.7591 183.694 68.8471 185.413C69.0691 189.76 68.4681 194.347 65.4561 199.053ZM155.397 185.139C153.821 186.811 150.06 187.216 147.77 186.701C147.527 184.6 146.999 182.533 146.031 180.537C144.538 177.46 141.952 174.953 138.859 173.674C141.02 173.463 143.746 174.599 145.279 175.382C149.156 177.364 152.828 180.178 155.397 185.139ZM188.318 100.291C188.978 102.492 187.448 105.951 185.858 107.677C183.917 106.836 181.863 106.261 179.65 106.101C176.239 105.855 172.775 106.841 170.121 108.88C171.019 106.903 173.366 105.11 174.811 104.174C178.464 101.808 182.737 100.036 188.318 100.291ZM145.28 53.0269C143.747 53.8099 141.021 54.9459 138.86 54.7349C141.953 53.4559 144.539 50.9489 146.032 47.8719C147.001 45.8749 147.529 43.8089 147.771 41.7079C150.061 41.1939 153.822 41.5989 155.398 43.2699C152.828 48.2309 149.156 51.0459 145.28 53.0269ZM68.8461 42.9959C68.7581 44.7149 68.3791 47.6439 67.1161 49.4099C67.5551 46.0919 66.6771 42.5989 64.7581 39.7679C63.5131 37.9309 61.9881 36.4409 60.2891 35.1799C60.9881 32.9399 63.2201 29.8849 65.4551 29.3559C68.4681 34.0619 69.0691 38.6489 68.8461 42.9959ZM21.9441 104.175C23.3891 105.111 25.7351 106.904 26.6331 108.881C23.9791 106.842 20.5151 105.856 17.1041 106.102C14.8911 106.262 12.8371 106.837 10.8961 107.678C9.30609 105.952 7.77608 102.492 8.43608 100.292C14.0171 100.036 18.2901 101.808 21.9441 104.175ZM51.4741 175.383C53.0071 174.6 55.7331 173.464 57.8941 173.675C54.8011 174.954 52.2151 177.461 50.7221 180.538C49.7541 182.534 49.2251 184.601 48.9831 186.702C46.6931 187.216 42.9321 186.811 41.3561 185.14C43.9261 180.178 47.5981 177.364 51.4741 175.383ZM127.908 185.413C127.996 183.694 128.375 180.765 129.638 178.999C129.199 182.317 130.077 185.81 131.996 188.641C133.241 190.478 134.766 191.968 136.465 193.229C135.766 195.469 133.534 198.524 131.299 199.053C128.286 194.347 127.685 189.76 127.908 185.413ZM174.81 124.235C173.365 123.299 171.019 121.506 170.12 119.53C172.774 121.569 176.238 122.555 179.649 122.309C181.862 122.149 183.916 121.574 185.857 120.733C187.447 122.459 188.977 125.919 188.317 128.119C182.737 128.374 178.464 126.602 174.81 124.235Z" fill="url(#paint2_linear_206_12)"/>
<path d="M98.377 78.7389C101.731 74.1569 106.466 66.6599 106.181 60.9949C106.019 57.7789 104.998 54.6749 103.638 51.7019C104.456 49.3549 105.309 46.8949 107.062 45.0679C107.993 44.0969 109.189 43.2769 110.469 42.8329C114.206 41.2159 116.671 45.2499 112.859 46.1129C112.701 44.3309 109.721 43.8919 109.511 46.4829C109.263 49.5419 113.48 50.3519 115.853 48.2999C118.054 46.3969 118.271 42.6639 115.968 40.9239C112.943 38.6389 109.595 39.7779 107.042 41.4569C104.508 43.1239 103.048 45.6159 101.935 48.3039C101.166 46.8779 100.362 45.4859 99.586 44.1319C99.325 43.6779 98.851 43.4499 98.377 43.4499C97.903 43.4499 97.428 43.6769 97.168 44.1319C96.392 45.4859 95.588 46.8779 94.819 48.3039C93.706 45.6159 92.246 43.1239 89.712 41.4569C87.159 39.7779 83.811 38.6389 80.786 40.9239C78.483 42.6639 78.7 46.3969 80.901 48.2999C83.274 50.3509 87.491 49.5419 87.243 46.4829C87.033 43.8919 84.054 44.3319 83.895 46.1129C80.083 45.2499 82.548 41.2159 86.285 42.8329C87.565 43.2769 88.762 44.0979 89.692 45.0679C91.444 46.8949 92.298 49.3539 93.116 51.7019C91.756 54.6749 90.735 57.7789 90.573 60.9949C90.288 66.6589 95.023 74.1559 98.377 78.7389ZM129.092 96.4719C134.737 97.0849 143.598 97.4379 148.361 94.3589C151.065 92.6109 153.242 90.1739 155.137 87.5099C157.579 87.0449 160.136 86.5539 162.594 87.1579C163.9 87.4789 165.209 88.1049 166.233 88.9909C169.502 91.4189 167.241 95.5709 164.587 92.7009C166.051 91.6729 164.942 88.8729 162.593 89.9869C159.82 91.3019 161.227 95.3589 164.19 96.3879C166.938 97.3419 170.28 95.6639 170.635 92.7989C171.101 89.0369 168.441 86.7069 165.71 85.3349C163 83.9739 160.111 83.9559 157.227 84.3359C158.077 82.9569 158.881 81.5649 159.666 80.2149C159.929 79.7619 159.889 79.2379 159.652 78.8269C159.415 78.4159 158.981 78.1189 158.457 78.1209C156.896 78.1259 155.289 78.1259 153.669 78.1729C155.44 75.8649 156.869 73.3549 157.045 70.3269C157.223 67.2759 156.535 63.8069 153.044 62.3299C150.385 61.2049 147.261 63.2599 146.713 66.1169C146.123 69.1969 148.932 72.4449 151.458 70.7009C153.597 69.2229 151.726 66.8629 150.104 67.6169C148.945 63.8839 153.672 64.0019 154.14 68.0469C154.395 69.3779 154.283 70.8239 153.908 72.1149C153.202 74.5459 151.499 76.5149 149.875 78.3969C146.62 78.7059 143.422 79.3729 140.556 80.8409C135.508 83.4259 131.383 91.2759 129.092 96.4719ZM129.092 131.938C131.384 137.133 135.508 144.983 140.556 147.569C143.422 149.037 146.621 149.704 149.875 150.013C151.499 151.895 153.202 153.864 153.908 156.295C154.283 157.586 154.395 159.033 154.14 160.363C153.672 164.408 148.945 164.526 150.104 160.793C151.726 161.547 153.596 159.187 151.458 157.709C148.933 155.965 146.123 159.212 146.713 162.293C147.261 165.15 150.385 167.205 153.044 166.08C156.535 164.603 157.223 161.134 157.045 158.083C156.869 155.055 155.44 152.545 153.669 150.237C155.289 150.284 156.896 150.284 158.457 150.289C158.981 150.291 159.415 149.993 159.652 149.582C159.889 149.171 159.93 148.647 159.666 148.194C158.882 146.844 158.078 145.453 157.227 144.073C160.111 144.453 163 144.435 165.71 143.074C168.441 141.702 171.101 139.372 170.635 135.61C170.28 132.745 166.938 131.067 164.19 132.021C161.227 133.05 159.819 137.107 162.593 138.422C164.942 139.536 166.051 136.736 164.587 135.708C167.24 132.838 169.502 136.99 166.233 139.418C165.208 140.304 163.9 140.93 162.594 141.251C160.136 141.855 157.579 141.365 155.137 140.899C153.242 138.235 151.065 135.798 148.361 134.05C143.597 130.972 134.737 131.325 129.092 131.938ZM98.377 149.671C95.023 154.253 90.288 161.75 90.572 167.415C90.734 170.631 91.755 173.735 93.115 176.708C92.297 179.056 91.444 181.515 89.691 183.342C88.76 184.312 87.564 185.133 86.284 185.577C82.547 187.194 80.082 183.16 83.894 182.297C84.052 184.079 87.031 184.518 87.242 181.927C87.49 178.868 83.273 178.059 80.9 180.11C78.699 182.013 78.482 185.746 80.785 187.486C83.81 189.771 87.158 188.632 89.711 186.953C92.245 185.287 93.705 182.794 94.818 180.106C95.587 181.532 96.391 182.924 97.167 184.278C97.428 184.732 97.902 184.96 98.376 184.96C98.85 184.96 99.325 184.733 99.585 184.278C100.361 182.924 101.165 181.532 101.934 180.106C103.047 182.794 104.507 185.286 107.041 186.953C109.594 188.632 112.942 189.771 115.967 187.486C118.27 185.746 118.053 182.013 115.852 180.11C113.479 178.059 109.262 178.868 109.51 181.927C109.72 184.518 112.699 184.079 112.858 182.297C116.67 183.16 114.205 187.194 110.468 185.577C109.188 185.133 107.991 184.312 107.061 183.342C105.309 181.515 104.455 179.056 103.637 176.708C104.997 173.735 106.018 170.631 106.18 167.415C106.466 161.751 101.73 154.253 98.377 149.671ZM67.662 131.938C62.017 131.325 53.156 130.972 48.393 134.051C45.689 135.799 43.512 138.236 41.617 140.9C39.175 141.365 36.618 141.856 34.16 141.252C32.854 140.931 31.545 140.305 30.521 139.419C27.252 136.991 29.513 132.839 32.167 135.709C30.703 136.737 31.812 139.537 34.161 138.423C36.934 137.108 35.527 133.051 32.564 132.022C29.816 131.068 26.474 132.746 26.119 135.611C25.653 139.373 28.313 141.703 31.044 143.075C33.754 144.436 36.643 144.454 39.527 144.074C38.677 145.453 37.873 146.845 37.088 148.195C36.825 148.648 36.865 149.172 37.102 149.583C37.339 149.994 37.773 150.291 38.297 150.29C39.858 150.285 41.465 150.285 43.085 150.238C41.314 152.546 39.885 155.056 39.709 158.084C39.531 161.135 40.219 164.604 43.71 166.081C46.369 167.206 49.493 165.151 50.04 162.294C50.63 159.214 47.821 155.966 45.295 157.71C43.156 159.188 45.026 161.548 46.648 160.794C47.807 164.527 43.08 164.409 42.612 160.364C42.357 159.034 42.469 157.587 42.844 156.296C43.55 153.865 45.253 151.896 46.877 150.014C50.132 149.705 53.331 149.038 56.197 147.57C61.246 144.983 65.371 137.133 67.662 131.938ZM67.662 96.4719C65.37 91.2769 61.246 83.4269 56.198 80.8409C53.332 79.3729 50.133 78.7059 46.878 78.3969C45.254 76.5149 43.551 74.5459 42.845 72.1149C42.47 70.8239 42.358 69.3769 42.613 68.0469C43.081 64.0019 47.808 63.8839 46.649 67.6169C45.027 66.8629 43.156 69.2229 45.296 70.7009C47.821 72.4449 50.631 69.1979 50.041 66.1169C49.493 63.2599 46.369 61.2049 43.711 62.3299C40.22 63.8069 39.532 67.2759 39.71 70.3269C39.886 73.3549 41.315 75.8649 43.086 78.1729C41.466 78.1259 39.859 78.1259 38.298 78.1209C37.774 78.1199 37.34 78.4169 37.103 78.8269C36.866 79.2379 36.825 79.7619 37.089 80.2149C37.873 81.5639 38.677 82.9559 39.528 84.3359C36.644 83.9559 33.755 83.9739 31.045 85.3349C28.314 86.7069 25.654 89.0369 26.12 92.7989C26.475 95.6639 29.817 97.3419 32.565 96.3879C35.528 95.3589 36.936 91.3019 34.162 89.9869C31.813 88.8729 30.704 91.6729 32.168 92.7009C29.515 95.5709 27.253 91.4189 30.522 88.9909C31.547 88.1049 32.855 87.4789 34.161 87.1579C36.619 86.5539 39.176 87.0439 41.618 87.5099C43.513 90.1739 45.69 92.6109 48.394 94.3589C53.156 97.4379 62.017 97.0849 67.662 96.4719ZM98.377 47.6469C100.742 51.7779 103.124 56.2679 103.38 60.9939C103.636 65.7189 101.095 70.2259 98.377 74.0639C95.659 70.2249 93.118 65.7189 93.374 60.9939C93.63 56.2689 96.012 51.7779 98.377 47.6469ZM156.017 80.9259C153.622 85.0389 150.924 89.3479 146.959 91.9329C142.995 94.5179 137.821 94.5699 133.138 94.1349C135.103 89.8619 137.735 85.4079 141.956 83.2669C146.178 81.1259 151.258 80.9429 156.017 80.9259ZM156.017 147.484C151.257 147.466 146.177 147.284 141.956 145.143C137.736 143.002 135.104 138.548 133.138 134.275C137.821 133.841 142.995 133.893 146.959 136.477C150.925 139.062 153.623 143.37 156.017 147.484ZM98.377 180.762C96.012 176.631 93.63 172.141 93.374 167.415C93.118 162.69 95.659 158.183 98.377 154.345C101.095 158.184 103.636 162.69 103.38 167.415C103.124 172.141 100.742 176.632 98.377 180.762ZM40.736 147.484C43.131 143.371 45.829 139.062 49.794 136.477C53.758 133.892 58.931 133.84 63.615 134.275C61.65 138.548 59.018 143.002 54.797 145.143C50.576 147.284 45.496 147.466 40.736 147.484ZM40.736 80.9259C45.496 80.9429 50.576 81.1259 54.797 83.2669C59.018 85.4079 61.649 89.8619 63.615 94.1349C58.932 94.5699 53.758 94.5169 49.794 91.9329C45.829 89.3479 43.131 85.0389 40.736 80.9259Z" fill="url(#paint3_linear_206_12)"/>
<defs>
<linearGradient id="paint0_linear_206_12" x1="-3.34311" y1="12.4846" x2="179.454" y2="195.282" gradientUnits="userSpaceOnUse">
<stop stop-color="#DDC18E"/>
<stop offset="1" stop-color="#B1915D"/>
</linearGradient>
<linearGradient id="paint1_linear_206_12" x1="-3.34308" y1="12.4847" x2="179.455" y2="195.282" gradientUnits="userSpaceOnUse">
<stop stop-color="#DDC18E"/>
<stop offset="1" stop-color="#B1915D"/>
</linearGradient>
<linearGradient id="paint2_linear_206_12" x1="-3.34302" y1="12.4847" x2="179.454" y2="195.282" gradientUnits="userSpaceOnUse">
<stop stop-color="#DDC18E"/>
<stop offset="1" stop-color="#B1915D"/>
</linearGradient>
<linearGradient id="paint3_linear_206_12" x1="-3.34321" y1="12.4846" x2="179.455" y2="195.283" gradientUnits="userSpaceOnUse">
<stop stop-color="#DDC18E"/>
<stop offset="1" stop-color="#B1915D"/>
</linearGradient>
</defs>
</svg>
